<?xml version="1.0" encoding="utf-8"?>
<!-- Generator: Adobe Illustrator 26.5.0, SVG Export Plug-In . SVG Version: 6.00 Build 0)  -->
<svg version="1.1" id="Layer_1" xmlns="http://www.w3.org/2000/svg" xmlns:xlink="http://www.w3.org/1999/xlink" x="0px" y="0px"
	 viewBox="0 0 40 40" style="enable-background:new 0 0 40 40;" xml:space="preserve">
<style type="text/css">
	.st0{fill:url(#SVGID_1_);}
	.st1{fill:url(#SVGID_00000067938881351533342890000005395182889386931866_);}
	.st2{fill:url(#SVGID_00000170960683694379133910000003083643095873645184_);}
	.st3{fill:url(#SVGID_00000074425562992669239280000015118600862454462877_);}
</style>
<linearGradient id="SVGID_1_" gradientUnits="userSpaceOnUse" x1="20.0016" y1="38.0937" x2="20.0016" y2="5.873" gradientTransform="matrix(1 0 0 -1 0 42)">
	<stop  offset="0" style="stop-color:#EF8031"/>
	<stop  offset="1" style="stop-color:#E65032"/>
</linearGradient>
<path class="st0" d="M15.3,3.9c0.6,0,1.2,0,1.8,0h5.8c0.6,0,1.2,0,1.8,0c1.6,0,3.2,0,4.3,0c4,0.3,6.7,2.7,7.1,6.7
	c0.1,1.5,0.1,3.2,0.1,5.3v0c0,0.4,0,0.7,0,1.1v5.8c0,0.4,0,0.7,0,1.1c0,2.1,0,3.9-0.1,5.3c-0.4,4.1-3.1,6.5-7.1,6.7
	c-1.1,0.1-2.7,0.1-4.3,0c-0.6,0-1.2,0-1.8,0h-5.8c-0.6,0-1.2,0-1.8,0c-1.6,0-3.2,0-4.3,0c-4-0.3-6.7-2.7-7.1-6.7
	c-0.1-1.5-0.1-3.2-0.1-5.3v0c0-0.4,0-0.7,0-1.1v-5.8c0-0.4,0-0.7,0-1.1v0c0-2.1,0-3.9,0.1-5.3C4.3,6.6,7.1,4.2,11,4
	C12.1,3.9,13.7,3.9,15.3,3.9z"/>
<g>
	
		<linearGradient id="SVGID_00000103984404309286549240000005347538635724661632_" gradientUnits="userSpaceOnUse" x1="8.6128" y1="21.7371" x2="30.6467" y2="21.7371">
		<stop  offset="0" style="stop-color:#FFFFFF"/>
		<stop  offset="1" style="stop-color:#C5D4F7"/>
	</linearGradient>
	<path style="fill:url(#SVGID_00000103984404309286549240000005347538635724661632_);" d="M19.6,10.7c-6.1,0-11,4.9-11,11
		s4.9,11,11,11s11-4.9,11-11S25.7,10.7,19.6,10.7z M19.6,30.7c-4.9,0-9-4-9-9s4-9,9-9s9,4,9,9S24.6,30.7,19.6,30.7z"/>
	
		<linearGradient id="SVGID_00000152980193145652339610000012107521971974436270_" gradientUnits="userSpaceOnUse" x1="12.7395" y1="21.7371" x2="26.5199" y2="21.7371">
		<stop  offset="0" style="stop-color:#FFFFFF"/>
		<stop  offset="1" style="stop-color:#C5D4F7"/>
	</linearGradient>
	<path style="fill:url(#SVGID_00000152980193145652339610000012107521971974436270_);" d="M19.6,14.8C19.6,14.8,19.6,14.8,19.6,14.8
		c-0.3,3.5-3.3,6.2-6.9,6.3c0,0.2,0,0.4,0,0.6c0,3.8,3.1,6.9,6.9,6.9s6.9-3.1,6.9-6.9S23.4,14.8,19.6,14.8z"/>
	
		<linearGradient id="SVGID_00000117666464975455519230000004466453912060588930_" gradientUnits="userSpaceOnUse" x1="11.7131" y1="8.2201" x2="29.3211" y2="8.2201">
		<stop  offset="0" style="stop-color:#FFFFFF"/>
		<stop  offset="1" style="stop-color:#C5D4F7"/>
	</linearGradient>
	<path style="fill:url(#SVGID_00000117666464975455519230000004466453912060588930_);" d="M19.6,8.4c2.4,0,4.7,0.6,6.6,1.8
		c0.4,0.2,0.8-0.1,0.7-0.5v0c-0.1-0.5,0.1-0.9,0.4-1.3l1.8-1.6c0.3-0.3,0.1-0.8-0.3-0.8H13.9c-1.2,0-2.2,1-2.2,2.2v1.9
		c0,0.4,0.4,0.6,0.7,0.4C14.5,9.1,17,8.4,19.6,8.4z"/>
</g>
</svg>
