<?xml version="1.0" encoding="utf-8"?>
<!-- Generator: Adobe Illustrator 26.5.0, SVG Export Plug-In . SVG Version: 6.00 Build 0)  -->
<svg version="1.1" id="Layer_1" xmlns="http://www.w3.org/2000/svg" xmlns:xlink="http://www.w3.org/1999/xlink" x="0px" y="0px"
	 viewBox="0 0 200 75" style="enable-background:new 0 0 200 75;" xml:space="preserve">
<style type="text/css">
	.st0{fill:#FFFFFF;}
	.st1{fill:url(#SVGID_1_);}
	.st2{fill:url(#SVGID_00000045613328224147987910000007139399742989553080_);}
	.st3{fill:url(#SVGID_00000183933083548943790540000008345110040771647374_);}
	.st4{fill:url(#SVGID_00000070814052316980972610000001615117071362947226_);}
</style>
<g>
	<path class="st0" d="M87,37.8c0,7.7-4.7,12.4-11.5,12.4c-7,0-11.1-5.3-11.1-12c0-7,4.5-12.3,11.4-12.3C83,25.9,87,31.3,87,37.8z
		 M70,38.1c0,4.6,2.2,7.8,5.7,7.8c3.6,0,5.7-3.4,5.7-8c0-4.2-2-7.8-5.7-7.8C72.1,30.2,70,33.6,70,38.1z"/>
	<path class="st0" d="M90.4,26.3h5.3v19h9.3v4.5H90.4V26.3z"/>
	<path class="st0" d="M114,43.8l-1.7,6h-5.5l7.2-23.5h7l7.3,23.5h-5.7l-1.8-6H114z M119.9,39.8l-1.5-5c-0.4-1.4-0.8-3.1-1.2-4.5
		h-0.1c-0.3,1.4-0.7,3.2-1.1,4.5l-1.4,5H119.9z"/>
	<path class="st0" d="M131.4,26.3h5.3v10.4h0.1c0.5-0.9,1.1-1.7,1.6-2.6l5.3-7.8h6.5l-7.8,10l8.2,13.5h-6.2l-5.8-10.2l-2,2.5v7.7
		h-5.3V26.3z"/>
	<path class="st0" d="M158.7,43.8l-1.7,6h-5.5l7.2-23.5h7l7.3,23.5h-5.7l-1.8-6H158.7z M164.7,39.8l-1.5-5c-0.4-1.4-0.8-3.1-1.2-4.5
		h-0.1c-0.3,1.4-0.7,3.2-1.1,4.5l-1.4,5H164.7z"/>
	<path class="st0" d="M176.1,26.3h5.3v19h9.3v4.5h-14.7V26.3z"/>
</g>
<linearGradient id="SVGID_1_" gradientUnits="userSpaceOnUse" x1="32.2514" y1="64.8854" x2="32.2514" y2="12.935" gradientTransform="matrix(1 0 0 -1 0 76)">
	<stop  offset="0" style="stop-color:#EF8031"/>
	<stop  offset="1" style="stop-color:#E65032"/>
</linearGradient>
<path class="st1" d="M24.7,11.1c1,0,1.9,0,2.8,0h9.3c0.9,0,1.9,0,2.8,0c2.6,0,5.2,0,6.9,0.1c6.4,0.4,10.8,4.3,11.4,10.9
	c0.1,2.4,0.1,5.2,0.1,8.6v0c0,0.6,0,1.2,0,1.8v9.3c0,0.6,0,1.2,0,1.8c0,3.4,0,6.2-0.1,8.6c-0.6,6.6-5,10.5-11.4,10.9
	c-1.8,0.1-4.4,0.1-6.9,0.1c-1,0-1.9,0-2.8,0h-9.3c-0.9,0-1.9,0-2.8,0c-2.6,0-5.2,0-6.9-0.1C11.4,62.6,7,58.7,6.4,52.1
	c-0.1-2.4-0.1-5.2-0.1-8.6v0c0-0.6,0-1.2,0-1.8v-9.3c0-0.6,0-1.2,0-1.8v0c0-3.4,0-6.2,0.1-8.6c0.6-6.6,5-10.5,11.4-10.9
	C19.6,11.1,22.1,11.1,24.7,11.1z"/>
<g>
	
		<linearGradient id="SVGID_00000180368152073098925920000010768025128225843358_" gradientUnits="userSpaceOnUse" x1="13.8889" y1="39.8638" x2="49.4146" y2="39.8638">
		<stop  offset="0" style="stop-color:#FFFFFF"/>
		<stop  offset="1" style="stop-color:#C5D4F7"/>
	</linearGradient>
	<path style="fill:url(#SVGID_00000180368152073098925920000010768025128225843358_);" d="M31.7,22.1c-9.8,0-17.8,8-17.8,17.8
		s8,17.8,17.8,17.8s17.8-8,17.8-17.8S41.5,22.1,31.7,22.1z M31.7,54.3c-8,0-14.4-6.5-14.4-14.4s6.5-14.4,14.4-14.4
		s14.4,6.5,14.4,14.4S39.6,54.3,31.7,54.3z"/>
	
		<linearGradient id="SVGID_00000035514317199066044070000003556917547399749530_" gradientUnits="userSpaceOnUse" x1="20.5425" y1="39.8638" x2="42.761" y2="39.8638">
		<stop  offset="0" style="stop-color:#FFFFFF"/>
		<stop  offset="1" style="stop-color:#C5D4F7"/>
	</linearGradient>
	<path style="fill:url(#SVGID_00000035514317199066044070000003556917547399749530_);" d="M31.7,28.8C31.6,28.8,31.6,28.8,31.7,28.8
		c-0.6,5.6-5.3,10.1-11.1,10.1c0,0.3,0,0.7,0,1c0,6.1,5,11.1,11.1,11.1s11.1-5,11.1-11.1S37.8,28.8,31.7,28.8z"/>
	
		<linearGradient id="SVGID_00000113330882899230652460000001310196846260459692_" gradientUnits="userSpaceOnUse" x1="18.8876" y1="18.0699" x2="47.2774" y2="18.0699">
		<stop  offset="0" style="stop-color:#FFFFFF"/>
		<stop  offset="1" style="stop-color:#C5D4F7"/>
	</linearGradient>
	<path style="fill:url(#SVGID_00000113330882899230652460000001310196846260459692_);" d="M31.7,18.3c3.9,0,7.6,1,10.7,2.9
		c0.6,0.3,1.3-0.2,1.1-0.8v0c-0.1-0.7,0.1-1.5,0.7-2l2.8-2.6c0.5-0.5,0.2-1.3-0.5-1.3h-24c-2,0-3.6,1.6-3.6,3.6V21
		c0,0.6,0.7,1,1.2,0.7C23.4,19.5,27.4,18.3,31.7,18.3z"/>
</g>
</svg>
